<svg xmlns="http://www.w3.org/2000/svg" width="512" height="512" viewBox="0 0 512 512" role="img" aria-label="Hortensio Paulo Pateta da Silva">
  <defs>
    <linearGradient id="bg" x1="0" y1="0" x2="1" y2="1">
      <stop offset="0%" stop-color="#2f4054"/>
      <stop offset="100%" stop-color="#5f7fa0"/>
    </linearGradient>
    <radialGradient id="face" cx="50%" cy="40%" r="60%">
      <stop offset="0%" stop-color="#f8d7b3"/>
      <stop offset="100%" stop-color="#e3b98f"/>
    </radialGradient>
  </defs>
  <rect width="512" height="512" fill="url(#bg)"/>
  <ellipse cx="256" cy="220" rx="112" ry="132" fill="url(#face)"/>
  <path d="M140 195 C160 90, 352 90, 372 195 L372 210 C332 165, 180 165, 140 210 Z" fill="#1f2630"/>
  <circle cx="214" cy="220" r="10" fill="#2a2a2a"/>
  <circle cx="298" cy="220" r="10" fill="#2a2a2a"/>
  <path d="M212 274 C232 292, 280 292, 300 274" fill="none" stroke="#8b5a3c" stroke-width="8" stroke-linecap="round"/>
  <path d="M110 500 C124 395, 190 342, 256 342 C322 342, 388 395, 402 500 Z" fill="#f2f5f8"/>
  <text x="256" y="468" font-family="Segoe UI, Arial, sans-serif" font-size="44" font-weight="700" text-anchor="middle" fill="#2f4054">HORTENSIO</text>
</svg>
